External Loads File
version=1
nRows=93
nColumns=13
Range=5.000000e-03-10 seconds
endheader
time 	forceRightX 	forceRightY 	forceRightZ 	pointRightX 	pointRightY 	pointRightZ 	forceLeftX 	forceLeftY 	forceLeftZ 	pointLeftX 	pointLeftY 	pointLeftZ 		
5.005000 -140.650741 40.473910 -0.000000 0.332031 0.505713 -0.120889 155.212293 221.871571 -0.000000 0.212905 0.167092 -0.364988
5.010000 -149.195205 77.575259 -0.000000 0.339165 0.499891 -0.120207 143.180083 175.933610 -0.000000 0.204830 0.171996 -0.362949
5.015000 -160.504344 119.678368 -0.000000 0.346105 0.493327 -0.119575 131.087325 134.929613 -0.000000 0.197433 0.177454 -0.362774
5.020000 -174.402746 166.730939 -0.000000 0.353095 0.486279 -0.118825 119.811935 99.025597 -0.000000 0.190235 0.183401 -0.362499
5.025000 -190.681229 217.827955 -0.000000 0.359743 0.478612 -0.118487 109.693890 68.458883 -0.000000 0.183224 0.189858 -0.362342
5.030000 -208.827973 271.813549 -0.000000 0.366144 0.470495 -0.118186 101.031736 43.124564 -0.000000 0.176520 0.197073 -0.362114
5.035000 -228.395225 327.165488 -0.000000 0.372169 0.461687 -0.117816 93.905434 22.833359 -0.000000 0.170017 0.204469 -0.361967
5.040000 -248.916144 382.382727 -0.000000 0.378156 0.452396 -0.117627 88.270560 7.270538 -0.000000 0.163989 0.211974 -0.361543
5.045000 -269.357553 436.554350 -0.000000 0.383829 0.442864 -0.117488 83.982581 -4.058162 -0.000000 0.158193 0.220360 -0.361771
5.050000 -289.076009 488.840630 -0.000000 0.389352 0.432907 -0.117399 80.825931 -11.577298 -0.000000 0.152866 0.229253 -0.361553
5.055000 -308.041005 538.418638 -0.000000 0.394328 0.422452 -0.117313 78.600727 -15.682379 -0.000000 0.148018 0.238265 -0.361456
5.060000 -325.578283 585.185342 -0.000000 0.398885 0.411991 -0.116860 77.090297 -16.932971 -0.000000 0.143734 0.247781 -0.361355
5.065000 -340.746743 629.437853 -0.000000 0.403206 0.401322 -0.117266 76.085993 -15.938520 -0.000000 0.139863 0.257465 -0.361176
5.070000 -353.257456 671.302078 -0.000000 0.406849 0.390562 -0.117010 75.448748 -13.239264 -0.000000 0.136571 0.267508 -0.361121
5.075000 -361.681360 711.612990 -0.000000 0.409991 0.379468 -0.116945 75.075125 -9.511456 -0.000000 0.133932 0.277857 -0.360954
5.080000 -365.477202 750.719974 -0.000000 0.412559 0.368148 -0.116750 74.932942 -5.314270 -0.000000 0.131723 0.288429 -0.360818
5.085000 -364.513758 788.739272 -0.000000 0.414388 0.356750 -0.116476 75.005685 -1.151354 -0.000000 0.130077 0.299278 -0.360778
5.090000 -358.782908 825.772389 -0.000000 0.415551 0.345298 -0.116041 75.255960 2.511181 -0.000000 0.128983 0.310306 -0.360711
5.095000 -349.607714 861.459871 -0.000000 0.416154 0.334201 -0.115905 75.613811 5.359476 -0.000000 0.128349 0.321501 -0.360672
5.100000 -334.803032 896.920164 -0.000000 0.416197 0.322467 -0.115754 76.010860 6.814152 -0.000000 0.128310 0.332741 -0.360688
5.105000 -318.477758 930.727524 -0.000000 0.415838 0.311292 -0.115665 76.315336 6.915308 -0.000000 0.128826 0.344035 -0.360567
5.110000 -298.230337 963.784956 -0.000000 0.415112 0.300128 -0.116077 76.404080 5.238728 -0.000000 0.129914 0.355732 -0.360487
5.115000 -277.210218 994.885306 -0.000000 0.413415 0.289215 -0.115074 76.083228 1.921770 -0.000000 0.131589 0.367011 -0.360325
5.120000 -254.382054 1024.019573 -0.000000 0.411346 0.278450 -0.115599 75.180573 -3.094057 -0.000000 0.133699 0.378255 -0.360258
5.125000 -229.528916 1050.723063 -0.000000 0.408332 0.267947 -0.115141 73.541048 -9.626785 -0.000000 0.136386 0.389362 -0.360086
5.130000 -203.535771 1074.204900 -0.000000 0.404841 0.257714 -0.115308 71.079517 -17.276369 -0.000000 0.139624 0.400210 -0.359791
5.135000 -175.779872 1093.941704 -0.000000 0.400934 0.247521 -0.115220 67.768148 -25.662092 -0.000000 0.143308 0.410862 -0.359549
5.140000 -148.735909 1108.864388 -0.000000 0.396356 0.238282 -0.114983 63.696230 -34.173031 -0.000000 0.147452 0.421239 -0.359238
5.145000 -119.593033 1118.699545 -0.000000 0.391208 0.229253 -0.114897 58.821196 -42.508815 -0.000000 0.152490 0.431226 -0.358953
5.150000 -90.709113 1122.457425 -0.000000 0.385640 0.220626 -0.114858 53.233466 -50.060231 -0.000000 0.157789 0.440766 -0.360376
5.155000 -61.541821 1119.616000 -0.000000 0.379469 0.212454 -0.114849 46.931635 -56.391445 -0.000000 0.163416 0.449985 -0.359693
5.160000 -30.181804 1109.749935 -0.000000 0.372874 0.204826 -0.114823 39.829922 -61.160218 -0.000000 0.169731 0.459657 -0.360549
5.165000 -2.819062 1092.366099 -0.000000 0.365795 0.197685 -0.114784 32.291612 -63.853129 -0.000000 0.176293 0.467443 -0.360176
5.170000 24.246189 1067.536780 -0.000000 0.358390 0.191160 -0.114670 24.145010 -64.495609 -0.000000 0.183539 0.474848 -0.360229
5.175000 49.286923 1035.396821 -0.000000 0.350536 0.185234 -0.114539 15.505532 -63.109063 -0.000000 0.191035 0.481597 -0.360103
5.180000 71.207371 996.450788 -0.000000 0.342432 0.179958 -0.114369 6.459967 -59.947313 -0.000000 0.198670 0.487682 -0.359951
5.185000 91.803658 951.321525 -0.000000 0.333980 0.175228 -0.114258 -3.058644 -55.412704 -0.000000 0.207011 0.492939 -0.359836
5.190000 110.229351 900.978390 -0.000000 0.325230 0.171114 -0.114066 -12.948835 -49.916369 -0.000000 0.215586 0.497773 -0.359841
5.195000 126.352018 846.431207 -0.000000 0.316209 0.167700 -0.113805 -23.160723 -43.873020 -0.000000 0.224398 0.501922 -0.359827
5.200000 140.634027 788.577541 -0.000000 0.306852 0.164867 -0.113534 -33.647900 -37.625071 -0.000000 0.233440 0.505366 -0.359784
5.205000 152.347633 728.464439 -0.000000 0.297365 0.162733 -0.113302 -44.252748 -31.476760 -0.000000 0.242513 0.508070 -0.359951
5.210000 162.618058 666.742387 -0.000000 0.287539 0.161357 -0.113035 -54.865778 -25.541513 -0.000000 0.251838 0.510050 -0.360207
5.215000 170.207692 604.538597 -0.000000 0.277913 0.160541 -0.112790 -65.266338 -19.961334 -0.000000 0.261211 0.511281 -0.360891
5.220000 175.823518 542.533484 -0.000000 0.268068 0.160466 -0.112536 -75.346873 -14.587949 -0.000000 0.270513 0.511637 -0.360751
5.225000 179.215140 481.658705 -0.000000 0.258250 0.161199 -0.112228 -85.034816 -9.191344 -0.000000 0.279652 0.511035 -0.360819
5.230000 180.501106 422.757880 -0.000000 0.248604 0.162609 -0.111989 -94.332103 -3.372615 -0.000000 0.288682 0.510310 -0.361040
5.235000 180.162960 366.474487 -0.000000 0.238984 0.164575 -0.111638 -103.308504 3.432997 -0.000000 0.297423 0.508286 -0.361074
5.240000 178.561762 313.379581 -0.000000 0.229484 0.167301 -0.111446 -112.141827 11.844618 -0.000000 0.305964 0.505697 -0.361273
5.245000 176.067867 263.909861 -0.000000 0.220176 0.170728 -0.111277 -121.129138 22.550612 -0.000000 0.314283 0.502306 -0.361213
5.250000 172.993219 218.384909 -0.000000 0.211050 0.174977 -0.111231 -130.619836 36.286617 -0.000000 0.322205 0.498088 -0.361530
5.255000 169.711134 176.880559 -0.000000 0.202168 0.179752 -0.111146 -140.909093 53.918698 -0.000000 0.329846 0.492547 -0.361908
5.260000 166.026038 139.826199 -0.000000 0.193650 0.185059 -0.111170 -152.369871 75.936935 -0.000000 0.336966 0.486689 -0.362245
5.265000 162.149935 107.208970 -0.000000 0.185357 0.190752 -0.111144 -165.218489 103.023748 -0.000000 0.343695 0.480570 -0.362736
5.270000 158.281918 78.757932 -0.000000 0.177468 0.197059 -0.111052 -179.298464 135.912198 -0.000000 0.350090 0.473088 -0.363247
5.275000 154.277512 54.588241 -0.000000 0.170017 0.203952 -0.111051 -194.477597 174.543732 -0.000000 0.355988 0.464939 -0.363874
5.280000 150.211623 34.328916 -0.000000 0.162977 0.211290 -0.111018 -210.025741 218.861858 -0.000000 0.361772 0.456103 -0.364363
5.285000 146.083175 17.718383 -0.000000 0.156391 0.219031 -0.111043 -225.159466 268.113071 -0.000000 0.367401 0.446757 -0.364738
5.290000 141.939222 4.313079 -0.000000 0.150223 0.227410 -0.111100 -238.837019 321.252865 -0.000000 0.372574 0.436955 -0.365054
5.295000 137.786387 -6.530813 -0.000000 0.144591 0.236105 -0.111235 -249.539455 377.218970 -0.000000 0.377647 0.426277 -0.364836
5.300000 133.612643 -14.811932 -0.000000 0.139492 0.245227 -0.111298 -257.595637 433.645152 -0.000000 0.382095 0.415866 -0.365385
5.305000 129.388590 -20.963811 -0.000000 0.134881 0.254710 -0.111472 -262.709712 488.983182 -0.000000 0.386282 0.405901 -0.365464
5.310000 124.915140 -25.804826 -0.000000 0.130909 0.264535 -0.111606 -262.784369 542.914224 -0.000000 0.390102 0.394856 -0.365467
5.315000 120.129680 -29.051537 -0.000000 0.127420 0.274672 -0.111837 -259.784766 593.364542 -0.000000 0.393561 0.384087 -0.365480
5.320000 114.958838 -30.784963 -0.000000 0.124560 0.285020 -0.111950 -254.728790 639.415188 -0.000000 0.396495 0.373515 -0.365621
5.325000 109.259396 -31.568168 -0.000000 0.122236 0.295642 -0.112118 -245.859325 681.661636 -0.000000 0.399222 0.362174 -0.365419
5.330000 103.225656 -31.012295 -0.000000 0.120592 0.306353 -0.112288 -236.885689 718.972920 -0.000000 0.401336 0.351093 -0.365425
5.335000 96.878291 -29.549531 -0.000000 0.118947 0.317352 -0.112996 -226.701705 752.387953 -0.000000 0.402917 0.339817 -0.365541
5.340000 90.435680 -26.977984 -0.000000 0.118357 0.328262 -0.113222 -218.615081 781.762130 -0.000000 0.404020 0.328933 -0.365624
5.345000 83.880485 -23.846377 -0.000000 0.118476 0.339118 -0.113593 -209.922021 808.820922 -0.000000 0.404590 0.317478 -0.365680
5.350000 77.346965 -20.170824 -0.000000 0.119449 0.350107 -0.113663 -202.480914 833.822701 -0.000000 0.404584 0.306462 -0.365897
5.355000 70.831168 -16.357283 -0.000000 0.121018 0.361101 -0.113942 -195.082910 857.537351 -0.000000 0.404219 0.295525 -0.365916
5.360000 64.290466 -12.836166 -0.000000 0.123296 0.372459 -0.114274 -185.952960 880.389783 -0.000000 0.403215 0.284793 -0.365985
5.365000 57.721503 -9.708442 -0.000000 0.125900 0.383126 -0.114678 -177.524715 901.566714 -0.000000 0.401933 0.274183 -0.365589
5.370000 51.033000 -7.436906 -0.000000 0.129044 0.393704 -0.115230 -167.231947 921.177736 -0.000000 0.399684 0.263948 -0.365471
5.375000 44.155286 -6.315969 -0.000000 0.132834 0.404366 -0.115627 -154.016899 938.940025 -0.000000 0.396839 0.254022 -0.365363
5.380000 37.016226 -6.555483 -0.000000 0.137214 0.414824 -0.116075 -138.002234 954.406329 -0.000000 0.393334 0.244296 -0.365357
5.385000 29.555641 -8.358435 -0.000000 0.142013 0.425031 -0.116629 -120.044888 967.100675 -0.000000 0.389309 0.234902 -0.365345
5.390000 21.727228 -11.961292 -0.000000 0.147321 0.434967 -0.117185 -100.073657 976.687097 -0.000000 0.384860 0.225779 -0.365243
5.395000 13.499703 -17.501591 -0.000000 0.153239 0.444570 -0.117678 -78.410694 982.734894 -0.000000 0.379724 0.217338 -0.365349
5.400000 4.844524 -24.973105 -0.000000 0.159540 0.453865 -0.118174 -54.769980 984.878668 -0.000000 0.374211 0.209017 -0.365315
5.405000 -4.250392 -34.190276 -0.000000 0.166652 0.462620 -0.118033 -29.030561 982.793575 -0.000000 0.368083 0.201192 -0.365190
5.410000 -13.655250 -44.861411 -0.000000 0.173509 0.470683 -0.118836 -4.352287 976.240640 -0.000000 0.361529 0.193856 -0.365149
5.415000 -23.476520 -56.528867 -0.000000 0.181133 0.478462 -0.118912 22.244524 965.301570 -0.000000 0.354451 0.187069 -0.365046
5.420000 -33.555535 -68.675540 -0.000000 0.188625 0.485571 -0.119777 47.590105 950.128261 -0.000000 0.346982 0.180739 -0.364859
5.425000 -43.985528 -80.564116 -0.000000 0.196793 0.492071 -0.120069 73.216622 930.831391 -0.000000 0.339184 0.174929 -0.364928
5.430000 -54.740404 -91.377478 -0.000000 0.205522 0.498023 -0.120432 98.685002 907.439205 -0.000000 0.331074 0.169635 -0.365039
5.435000 -65.544103 -100.336731 -0.000000 0.214249 0.503297 -0.120777 122.151199 880.026650 -0.000000 0.322713 0.164831 -0.365134
5.440000 -76.157172 -106.638399 -0.000000 0.223120 0.507895 -0.120739 143.604529 848.325668 -0.000000 0.314093 0.160757 -0.365311
5.445000 -86.409426 -109.568384 -0.000000 0.232709 0.511964 -0.121129 163.998343 811.670272 -0.000000 0.305303 0.157403 -0.365322
5.450000 -95.625086 -109.079855 -0.000000 0.242046 0.515198 -0.121360 180.586535 770.132975 -0.000000 0.296380 0.154684 -0.365447
5.455000 -103.605549 -105.091627 -0.000000 0.251656 0.517807 -0.121888 194.088796 723.436632 -0.000000 0.287460 0.152628 -0.365429
5.460000 -109.922644 -98.029019 -0.000000 0.260737 0.519573 -0.121995 202.957168 672.250337 -0.000000 0.278443 0.151381 -0.365420
5.465000 -114.716612 -87.980538 -0.000000 0.270105 0.520698 -0.122044 208.633675 616.833813 -0.000000 0.269505 0.150924 -0.365444
